<?xml version="1.0" encoding="UTF-8"?>
<svg xmlns="http://www.w3.org/2000/svg" xmlns:xlink="http://www.w3.org/1999/xlink" viewBox="0 0 207 100">
  <defs>
    <linearGradient id="drive" x1="316.61" y1="163.13" x2="319.65" y2="167.29" gradientUnits="userSpaceOnUse">
      <stop offset="0" stop-color="#ededed"/>
      <stop offset="1" stop-color="#bebebe"/>
    </linearGradient>
  </defs>

  <g transform="translate(-343.31 -486.5)">

    <!-- ═══════════════════════════════════════════════════
         AWS  —  #FFAD33
         ═══════════════════════════════════════════════════ -->
    <g transform="matrix(.92352 0 0 .92352 18.349 358.16)">
      <path style="stroke-linejoin:round;stroke:#000;stroke-linecap:round;stroke-width:2;fill:#000" d="m383.56 139.97-30.688 17.719v70.844l30.688 17.719 30.688-17.719v-70.844l-30.688-17.719z"/>
      <!-- left face -->
      <path style="fill:#DB9530" d="m352.89 157.68v70.866l30.686 17.717v-70.866l-30.686-17.717z"/>
      <!-- top face -->
      <path style="fill:#DB9530" d="m383.57 139.96-30.686 17.717 30.686 17.717 30.686-17.717-30.686-17.717z"/>
      <!-- right face -->
      <path style="fill:#A26633" d="m383.57 175.39 30.686-17.717v70.866l-30.686 17.717v-70.866z"/>
      <!-- right panels -->
      <path style="stroke:#000;stroke-width:1px;fill:#714D33" d="m411.19 162.99-24.549 14.173v28.346l24.549-14.173v-28.346z"/>
      <path style="stroke:#000;stroke-width:1px;fill:#714D33" d="m411.19 198.43-24.549 14.173v28.346l24.549-14.173v-28.346z"/>
      <!-- shelf row 1 -->
      <path style="fill:#E69D33" d="m356.07 163.12 24.434 14.044v10.63l-24.549-14.173 0.11453-10.501z"/>
      <path style="fill:#CD8D33" d="m359.03 175.39v-10.63l-3.0686-1.7717v10.63l3.0686 1.7716z"/>
      <path style="fill:#CD8D33" d="m380.51 187.8v-10.63l-3.0686-1.7717v10.63l3.0686 1.7716z"/>
      <path style="fill:#CD8D33" d="m371.3 182.48v-10.63l-3.0686-1.7717v10.63l3.0686 1.7716z"/>
      <path style="fill:#CD8D33" d="m368.23 180.71v-10.63l-3.0686-1.7717v10.63l3.0686 1.7716z"/>
      <path style="stroke:#4c4c4c;fill:url(#drive)" transform="matrix(.19724 .11387 0 .22775 305.94 102.28)" d="m322.2 163.35c0 3.3025-2.6772 5.9796-5.9796 5.9796-3.3025 0-5.9796-2.6772-5.9796-5.9796 0-3.3025 2.6772-5.9796 5.9796-5.9796 3.3025 0 5.9796 2.6772 5.9796 5.9796z"/>
      <path style="stroke:#4c4c4c;fill:url(#drive)" transform="matrix(.19724 .11387 0 .22775 295.05 95.904)" d="m322.2 163.35c0 3.3025-2.6772 5.9796-5.9796 5.9796-3.3025 0-5.9796-2.6772-5.9796-5.9796 0-3.3025 2.6772-5.9796 5.9796-5.9796 3.3025 0 5.9796 2.6772 5.9796 5.9796z"/>
      <path style="stroke:#4c4c4c;fill:url(#drive)" transform="matrix(.19724 .11387 0 .22775 316.64 108.4)" d="m322.2 163.35c0 3.3025-2.6772 5.9796-5.9796 5.9796-3.3025 0-5.9796-2.6772-5.9796-5.9796 0-3.3025 2.6772-5.9796 5.9796-5.9796 3.3025 0 5.9796 2.6772 5.9796 5.9796z"/>
      <!-- shelf row 2 -->
      <path style="stroke:#000;stroke-width:1px;fill:none" d="m355.96 162.99 24.549 14.173v10.63l-24.549-14.173v-10.63z"/>
      <path style="fill:#E69D33" d="m356.07 173.75 24.434 14.044v10.63l-24.549-14.173 0.11453-10.501z"/>
      <path style="fill:#CD8D33" d="m359.03 186.02v-10.63l-3.0686-1.7717v10.63l3.0686 1.7716z"/>
      <path style="fill:#CD8D33" d="m380.51 198.43v-10.63l-3.0686-1.7717v10.63l3.0686 1.7716z"/>
      <path style="fill:#CD8D33" d="m371.3 193.11v-10.63l-3.0686-1.7717v10.63l3.0686 1.7716z"/>
      <path style="fill:#CD8D33" d="m368.23 191.34v-10.63l-3.0686-1.7717v10.63l3.0686 1.7716z"/>
      <path style="stroke:#4c4c4c;fill:url(#drive)" transform="matrix(.19724 .11387 0 .22775 305.94 112.91)" d="m322.2 163.35c0 3.3025-2.6772 5.9796-5.9796 5.9796-3.3025 0-5.9796-2.6772-5.9796-5.9796 0-3.3025 2.6772-5.9796 5.9796-5.9796 3.3025 0 5.9796 2.6772 5.9796 5.9796z"/>
      <path style="stroke:#4c4c4c;fill:url(#drive)" transform="matrix(.19724 .11387 0 .22775 295.05 106.53)" d="m322.2 163.35c0 3.3025-2.6772 5.9796-5.9796 5.9796-3.3025 0-5.9796-2.6772-5.9796-5.9796 0-3.3025 2.6772-5.9796 5.9796-5.9796 3.3025 0 5.9796 2.6772 5.9796 5.9796z"/>
      <path style="stroke:#4c4c4c;fill:url(#drive)" transform="matrix(.19724 .11387 0 .22775 316.64 119.03)" d="m322.2 163.35c0 3.3025-2.6772 5.9796-5.9796 5.9796-3.3025 0-5.9796-2.6772-5.9796-5.9796 0-3.3025 2.6772-5.9796 5.9796-5.9796 3.3025 0 5.9796 2.6772 5.9796 5.9796z"/>
      <!-- shelf row 3 -->
      <path style="stroke:#000;stroke-width:1px;fill:none" d="m355.96 173.62 24.549 14.173v10.63l-24.549-14.173v-10.63z"/>
      <path style="fill:#E69D33" d="m356.07 184.38 24.434 14.044v10.63l-24.549-14.173 0.11453-10.501z"/>
      <path style="fill:#CD8D33" d="m359.03 196.65v-10.63l-3.0686-1.7717v10.63l3.0686 1.7716z"/>
      <path style="fill:#CD8D33" d="m380.51 209.06v-10.63l-3.0686-1.7717v10.63l3.0686 1.7716z"/>
      <path style="fill:#CD8D33" d="m371.3 203.74v-10.63l-3.0686-1.7717v10.63l3.0686 1.7716z"/>
      <path style="fill:#CD8D33" d="m368.23 201.97v-10.63l-3.0686-1.7717v10.63l3.0686 1.7716z"/>
      <path style="stroke:#4c4c4c;fill:url(#drive)" transform="matrix(.19724 .11387 0 .22775 305.94 123.54)" d="m322.2 163.35c0 3.3025-2.6772 5.9796-5.9796 5.9796-3.3025 0-5.9796-2.6772-5.9796-5.9796 0-3.3025 2.6772-5.9796 5.9796-5.9796 3.3025 0 5.9796 2.6772 5.9796 5.9796z"/>
      <path style="stroke:#4c4c4c;fill:url(#drive)" transform="matrix(.19724 .11387 0 .22775 295.05 117.16)" d="m322.2 163.35c0 3.3025-2.6772 5.9796-5.9796 5.9796-3.3025 0-5.9796-2.6772-5.9796-5.9796 0-3.3025 2.6772-5.9796 5.9796-5.9796 3.3025 0 5.9796 2.6772 5.9796 5.9796z"/>
      <path style="stroke:#4c4c4c;fill:url(#drive)" transform="matrix(.19724 .11387 0 .22775 316.64 129.66)" d="m322.2 163.35c0 3.3025-2.6772 5.9796-5.9796 5.9796-3.3025 0-5.9796-2.6772-5.9796-5.9796 0-3.3025 2.6772-5.9796 5.9796-5.9796 3.3025 0 5.9796 2.6772 5.9796 5.9796z"/>
      <!-- shelf row 4 -->
      <path style="stroke:#000;stroke-width:1px;fill:none" d="m355.96 184.25 24.549 14.173v10.63l-24.549-14.173v-10.63z"/>
      <path style="stroke:#000;stroke-width:1px;fill:none" d="m355.96 194.88 24.549 14.173v10.63l-24.549-14.173v-10.63z"/>
      <path style="fill:#E69D33" d="m356.07 195.01 24.434 14.044v10.63l-24.549-14.173 0.11453-10.501z"/>
      <path style="fill:#CD8D33" d="m359.03 207.28v-10.63l-3.0686-1.7717v10.63l3.0686 1.7716z"/>
      <path style="fill:#CD8D33" d="m380.51 219.69v-10.63l-3.0686-1.7717v10.63l3.0686 1.7716z"/>
      <path style="fill:#CD8D33" d="m371.3 214.37v-10.63l-3.0686-1.7717v10.63l3.0686 1.7716z"/>
      <path style="fill:#CD8D33" d="m368.23 212.6v-10.63l-3.0686-1.7717v10.63l3.0686 1.7716z"/>
      <path style="stroke:#4c4c4c;fill:url(#drive)" transform="matrix(.19724 .11387 0 .22775 305.94 134.17)" d="m322.2 163.35c0 3.3025-2.6772 5.9796-5.9796 5.9796-3.3025 0-5.9796-2.6772-5.9796-5.9796 0-3.3025 2.6772-5.9796 5.9796-5.9796 3.3025 0 5.9796 2.6772 5.9796 5.9796z"/>
      <path style="stroke:#4c4c4c;fill:url(#drive)" transform="matrix(.19724 .11387 0 .22775 295.05 127.79)" d="m322.2 163.35c0 3.3025-2.6772 5.9796-5.9796 5.9796-3.3025 0-5.9796-2.6772-5.9796-5.9796 0-3.3025 2.6772-5.9796 5.9796-5.9796 3.3025 0 5.9796 2.6772 5.9796 5.9796z"/>
      <path style="stroke:#4c4c4c;fill:url(#drive)" transform="matrix(.19724 .11387 0 .22775 316.64 140.29)" d="m322.2 163.35c0 3.3025-2.6772 5.9796-5.9796 5.9796-3.3025 0-5.9796-2.6772-5.9796-5.9796 0-3.3025 2.6772-5.9796 5.9796-5.9796 3.3025 0 5.9796 2.6772 5.9796 5.9796z"/>
      <!-- shelf row 5 -->
      <path style="stroke:#000;stroke-width:1px;fill:none" d="m355.96 205.51 24.549 14.173v10.63l-24.549-14.173v-10.63z"/>
      <path style="fill:#E69D33" d="m356.07 205.64 24.434 14.044v10.63l-24.549-14.173 0.11453-10.501z"/>
      <path style="fill:#CD8D33" d="m359.03 217.91v-10.63l-3.0686-1.7717v10.63l3.0686 1.7716z"/>
      <path style="fill:#CD8D33" d="m380.51 230.31v-10.63l-3.0686-1.7717v10.63l3.0686 1.7716z"/>
      <path style="fill:#CD8D33" d="m371.3 225v-10.63l-3.0686-1.7717v10.63l3.0686 1.7716z"/>
      <path style="fill:#CD8D33" d="m368.23 223.23v-10.63l-3.0686-1.7717v10.63l3.0686 1.7716z"/>
      <path style="stroke:#4c4c4c;fill:url(#drive)" transform="matrix(.19724 .11387 0 .22775 305.94 144.8)" d="m322.2 163.35c0 3.3025-2.6772 5.9796-5.9796 5.9796-3.3025 0-5.9796-2.6772-5.9796-5.9796 0-3.3025 2.6772-5.9796 5.9796-5.9796 3.3025 0 5.9796 2.6772 5.9796 5.9796z"/>
      <path style="stroke:#4c4c4c;fill:url(#drive)" transform="matrix(.19724 .11387 0 .22775 295.05 138.42)" d="m322.2 163.35c0 3.3025-2.6772 5.9796-5.9796 5.9796-3.3025 0-5.9796-2.6772-5.9796-5.9796 0-3.3025 2.6772-5.9796 5.9796-5.9796 3.3025 0 5.9796 2.6772 5.9796 5.9796z"/>
      <path style="stroke:#4c4c4c;fill:url(#drive)" transform="matrix(.19724 .11387 0 .22775 316.64 150.92)" d="m322.2 163.35c0 3.3025-2.6772 5.9796-5.9796 5.9796-3.3025 0-5.9796-2.6772-5.9796-5.9796 0-3.3025 2.6772-5.9796 5.9796-5.9796 3.3025 0 5.9796 2.6772 5.9796 5.9796z"/>
      <!-- shelf row 6 -->
      <path style="stroke:#000;stroke-width:1px;fill:none" d="m355.96 216.14 24.549 14.173v10.63l-24.549-14.173v-10.63z"/>
      <path style="fill:#E69D33" d="m356.07 216.27 24.434 14.044v10.63l-24.549-14.173 0.11453-10.501z"/>
      <path style="fill:#CD8D33" d="m359.03 228.54v-10.63l-3.0686-1.7717v10.63l3.0686 1.7716z"/>
      <path style="fill:#CD8D33" d="m380.51 240.94v-10.63l-3.0686-1.7717v10.63l3.0686 1.7716z"/>
      <path style="fill:#CD8D33" d="m371.3 235.63v-10.63l-3.0686-1.7717v10.63l3.0686 1.7716z"/>
      <path style="fill:#CD8D33" d="m368.23 233.86v-10.63l-3.0686-1.7717v10.63l3.0686 1.7716z"/>
      <path style="stroke:#4c4c4c;fill:url(#drive)" transform="matrix(.19724 .11387 0 .22775 305.94 155.43)" d="m322.2 163.35c0 3.3025-2.6772 5.9796-5.9796 5.9796-3.3025 0-5.9796-2.6772-5.9796-5.9796 0-3.3025 2.6772-5.9796 5.9796-5.9796 3.3025 0 5.9796 2.6772 5.9796 5.9796z"/>
      <path style="stroke:#4c4c4c;fill:url(#drive)" transform="matrix(.19724 .11387 0 .22775 295.05 149.05)" d="m322.2 163.35c0 3.3025-2.6772 5.9796-5.9796 5.9796-3.3025 0-5.9796-2.6772-5.9796-5.9796 0-3.3025 2.6772-5.9796 5.9796-5.9796 3.3025 0 5.9796 2.6772 5.9796 5.9796z"/>
      <path style="stroke:#4c4c4c;fill:url(#drive)" transform="matrix(.19724 .11387 0 .22775 316.64 161.55)" d="m322.2 163.35c0 3.3025-2.6772 5.9796-5.9796 5.9796-3.3025 0-5.9796-2.6772-5.9796-5.9796 0-3.3025 2.6772-5.9796 5.9796-5.9796 3.3025 0 5.9796 2.6772 5.9796 5.9796z"/>
      <!-- shelf outline groups (bottom) -->
      <path style="stroke:#000;stroke-width:1.8;fill:none" d="m355.96 162.99v31.89l24.549 14.173v-31.89l-24.549-14.173z"/>
      <path style="stroke:#000;stroke-width:1.8;fill:none" d="m355.96 194.88v31.89l24.549 14.173v-31.89l-24.549-14.173z"/>
      <!-- edges -->
      <path style="stroke-linejoin:round;stroke:#ababab;stroke-linecap:round;stroke-width:0.4;fill:none" d="m352.89 157.68 30.686 17.717v70.866"/>
      <path style="stroke-linejoin:round;stroke:#6c6c6c;stroke-linecap:round;stroke-width:0.4;fill:none" d="m352.89 157.68v70.866l30.686 17.717"/>
      <path style="stroke-linejoin:round;stroke:#757575;stroke-linecap:round;stroke-width:0.4;fill:none" d="m383.57 175.39 30.686-17.717"/>
      <!-- right panel grid -->
      <path style="stroke:#000;stroke-width:1px;fill:none" d="m389.77 175.42-0.0565 28.321"/>
      <path style="stroke:#000;stroke-width:1px;fill:none" d="m392.78 173.62-0.0565 28.321"/>
      <path style="stroke:#000;stroke-width:1px;fill:none" d="m395.85 171.85-0.0565 28.321"/>
      <path style="stroke:#000;stroke-width:1px;fill:none" d="m398.92 170.08-0.0565 28.321"/>
      <path style="stroke:#000;stroke-width:1px;fill:none" d="m401.99 168.31-0.0565 28.321"/>
      <path style="stroke:#000;stroke-width:1px;fill:none" d="m405.05 166.54-0.0565 28.321"/>
      <path style="stroke:#000;stroke-width:1px;fill:none" d="m408.12 164.76-0.0565 28.321"/>
      <path style="stroke:#000;stroke-width:1px;fill:none" d="m389.827 210.878-0.0565 28.321"/>
      <path style="stroke:#000;stroke-width:1px;fill:none" d="m392.837 209.078-0.0565 28.321"/>
      <path style="stroke:#000;stroke-width:1px;fill:none" d="m395.907 207.308-0.0565 28.321"/>
      <path style="stroke:#000;stroke-width:1px;fill:none" d="m398.977 205.538-0.0565 28.321"/>
      <path style="stroke:#000;stroke-width:1px;fill:none" d="m402.047 203.768-0.0565 28.321"/>
      <path style="stroke:#000;stroke-width:1px;fill:none" d="m405.107 202-0.0565 28.321"/>
      <path style="stroke:#000;stroke-width:1px;fill:none" d="m408.177 200.218-0.0565 28.321"/>
    </g>

    <!-- ═══════════════════════════════════════════════════
         AZURE  —  #3393DD   (tx + 74)
         ═══════════════════════════════════════════════════ -->
    <g transform="matrix(.92352 0 0 .92352 92.349 358.16)">
      <path style="stroke-linejoin:round;stroke:#000;stroke-linecap:round;stroke-width:2;fill:#000" d="m383.56 139.97-30.688 17.719v70.844l30.688 17.719 30.688-17.719v-70.844l-30.688-17.719z"/>
      <path style="fill:#3079B0" d="m352.89 157.68v70.866l30.686 17.717v-70.866l-30.686-17.717z"/>
      <path style="fill:#3079B0" d="m383.57 139.96-30.686 17.717 30.686 17.717 30.686-17.717-30.686-17.717z"/>
      <path style="fill:#335984" d="m383.57 175.39 30.686-17.717v70.866l-30.686 17.717v-70.866z"/>
      <path style="stroke:#000;stroke-width:1px;fill:#334466" d="m411.19 162.99-24.549 14.173v28.346l24.549-14.173v-28.346z"/>
      <path style="stroke:#000;stroke-width:1px;fill:#334466" d="m411.19 198.43-24.549 14.173v28.346l24.549-14.173v-28.346z"/>
      <path style="fill:#337FB9" d="m356.07 163.12 24.434 14.044v10.63l-24.549-14.173 0.11453-10.501z"/>
      <path style="fill:#336E99" d="m359.03 175.39v-10.63l-3.0686-1.7717v10.63l3.0686 1.7716z"/>
      <path style="fill:#336E99" d="m380.51 187.8v-10.63l-3.0686-1.7717v10.63l3.0686 1.7716z"/>
      <path style="fill:#336E99" d="m371.3 182.48v-10.63l-3.0686-1.7717v10.63l3.0686 1.7716z"/>
      <path style="fill:#336E99" d="m368.23 180.71v-10.63l-3.0686-1.7717v10.63l3.0686 1.7716z"/>
      <path style="stroke:#4c4c4c;fill:url(#drive)" transform="matrix(.19724 .11387 0 .22775 305.94 102.28)" d="m322.2 163.35c0 3.3025-2.6772 5.9796-5.9796 5.9796-3.3025 0-5.9796-2.6772-5.9796-5.9796 0-3.3025 2.6772-5.9796 5.9796-5.9796 3.3025 0 5.9796 2.6772 5.9796 5.9796z"/>
      <path style="stroke:#4c4c4c;fill:url(#drive)" transform="matrix(.19724 .11387 0 .22775 295.05 95.904)" d="m322.2 163.35c0 3.3025-2.6772 5.9796-5.9796 5.9796-3.3025 0-5.9796-2.6772-5.9796-5.9796 0-3.3025 2.6772-5.9796 5.9796-5.9796 3.3025 0 5.9796 2.6772 5.9796 5.9796z"/>
      <path style="stroke:#4c4c4c;fill:url(#drive)" transform="matrix(.19724 .11387 0 .22775 316.64 108.4)" d="m322.2 163.35c0 3.3025-2.6772 5.9796-5.9796 5.9796-3.3025 0-5.9796-2.6772-5.9796-5.9796 0-3.3025 2.6772-5.9796 5.9796-5.9796 3.3025 0 5.9796 2.6772 5.9796 5.9796z"/>
      <path style="stroke:#000;stroke-width:1px;fill:none" d="m355.96 162.99 24.549 14.173v10.63l-24.549-14.173v-10.63z"/>
      <path style="fill:#337FB9" d="m356.07 173.75 24.434 14.044v10.63l-24.549-14.173 0.11453-10.501z"/>
      <path style="fill:#336E99" d="m359.03 186.02v-10.63l-3.0686-1.7717v10.63l3.0686 1.7716z"/>
      <path style="fill:#336E99" d="m380.51 198.43v-10.63l-3.0686-1.7717v10.63l3.0686 1.7716z"/>
      <path style="fill:#336E99" d="m371.3 193.11v-10.63l-3.0686-1.7717v10.63l3.0686 1.7716z"/>
      <path style="fill:#336E99" d="m368.23 191.34v-10.63l-3.0686-1.7717v10.63l3.0686 1.7716z"/>
      <path style="stroke:#4c4c4c;fill:url(#drive)" transform="matrix(.19724 .11387 0 .22775 305.94 112.91)" d="m322.2 163.35c0 3.3025-2.6772 5.9796-5.9796 5.9796-3.3025 0-5.9796-2.6772-5.9796-5.9796 0-3.3025 2.6772-5.9796 5.9796-5.9796 3.3025 0 5.9796 2.6772 5.9796 5.9796z"/>
      <path style="stroke:#4c4c4c;fill:url(#drive)" transform="matrix(.19724 .11387 0 .22775 295.05 106.53)" d="m322.2 163.35c0 3.3025-2.6772 5.9796-5.9796 5.9796-3.3025 0-5.9796-2.6772-5.9796-5.9796 0-3.3025 2.6772-5.9796 5.9796-5.9796 3.3025 0 5.9796 2.6772 5.9796 5.9796z"/>
      <path style="stroke:#4c4c4c;fill:url(#drive)" transform="matrix(.19724 .11387 0 .22775 316.64 119.03)" d="m322.2 163.35c0 3.3025-2.6772 5.9796-5.9796 5.9796-3.3025 0-5.9796-2.6772-5.9796-5.9796 0-3.3025 2.6772-5.9796 5.9796-5.9796 3.3025 0 5.9796 2.6772 5.9796 5.9796z"/>
      <path style="stroke:#000;stroke-width:1px;fill:none" d="m355.96 173.62 24.549 14.173v10.63l-24.549-14.173v-10.63z"/>
      <path style="fill:#337FB9" d="m356.07 184.38 24.434 14.044v10.63l-24.549-14.173 0.11453-10.501z"/>
      <path style="fill:#336E99" d="m359.03 196.65v-10.63l-3.0686-1.7717v10.63l3.0686 1.7716z"/>
      <path style="fill:#336E99" d="m380.51 209.06v-10.63l-3.0686-1.7717v10.63l3.0686 1.7716z"/>
      <path style="fill:#336E99" d="m371.3 203.74v-10.63l-3.0686-1.7717v10.63l3.0686 1.7716z"/>
      <path style="fill:#336E99" d="m368.23 201.97v-10.63l-3.0686-1.7717v10.63l3.0686 1.7716z"/>
      <path style="stroke:#4c4c4c;fill:url(#drive)" transform="matrix(.19724 .11387 0 .22775 305.94 123.54)" d="m322.2 163.35c0 3.3025-2.6772 5.9796-5.9796 5.9796-3.3025 0-5.9796-2.6772-5.9796-5.9796 0-3.3025 2.6772-5.9796 5.9796-5.9796 3.3025 0 5.9796 2.6772 5.9796 5.9796z"/>
      <path style="stroke:#4c4c4c;fill:url(#drive)" transform="matrix(.19724 .11387 0 .22775 295.05 117.16)" d="m322.2 163.35c0 3.3025-2.6772 5.9796-5.9796 5.9796-3.3025 0-5.9796-2.6772-5.9796-5.9796 0-3.3025 2.6772-5.9796 5.9796-5.9796 3.3025 0 5.9796 2.6772 5.9796 5.9796z"/>
      <path style="stroke:#4c4c4c;fill:url(#drive)" transform="matrix(.19724 .11387 0 .22775 316.64 129.66)" d="m322.2 163.35c0 3.3025-2.6772 5.9796-5.9796 5.9796-3.3025 0-5.9796-2.6772-5.9796-5.9796 0-3.3025 2.6772-5.9796 5.9796-5.9796 3.3025 0 5.9796 2.6772 5.9796 5.9796z"/>
      <path style="stroke:#000;stroke-width:1px;fill:none" d="m355.96 184.25 24.549 14.173v10.63l-24.549-14.173v-10.63z"/>
      <path style="stroke:#000;stroke-width:1px;fill:none" d="m355.96 194.88 24.549 14.173v10.63l-24.549-14.173v-10.63z"/>
      <path style="fill:#337FB9" d="m356.07 195.01 24.434 14.044v10.63l-24.549-14.173 0.11453-10.501z"/>
      <path style="fill:#336E99" d="m359.03 207.28v-10.63l-3.0686-1.7717v10.63l3.0686 1.7716z"/>
      <path style="fill:#336E99" d="m380.51 219.69v-10.63l-3.0686-1.7717v10.63l3.0686 1.7716z"/>
      <path style="fill:#336E99" d="m371.3 214.37v-10.63l-3.0686-1.7717v10.63l3.0686 1.7716z"/>
      <path style="fill:#336E99" d="m368.23 212.6v-10.63l-3.0686-1.7717v10.63l3.0686 1.7716z"/>
      <path style="stroke:#4c4c4c;fill:url(#drive)" transform="matrix(.19724 .11387 0 .22775 305.94 134.17)" d="m322.2 163.35c0 3.3025-2.6772 5.9796-5.9796 5.9796-3.3025 0-5.9796-2.6772-5.9796-5.9796 0-3.3025 2.6772-5.9796 5.9796-5.9796 3.3025 0 5.9796 2.6772 5.9796 5.9796z"/>
      <path style="stroke:#4c4c4c;fill:url(#drive)" transform="matrix(.19724 .11387 0 .22775 295.05 127.79)" d="m322.2 163.35c0 3.3025-2.6772 5.9796-5.9796 5.9796-3.3025 0-5.9796-2.6772-5.9796-5.9796 0-3.3025 2.6772-5.9796 5.9796-5.9796 3.3025 0 5.9796 2.6772 5.9796 5.9796z"/>
      <path style="stroke:#4c4c4c;fill:url(#drive)" transform="matrix(.19724 .11387 0 .22775 316.64 140.29)" d="m322.2 163.35c0 3.3025-2.6772 5.9796-5.9796 5.9796-3.3025 0-5.9796-2.6772-5.9796-5.9796 0-3.3025 2.6772-5.9796 5.9796-5.9796 3.3025 0 5.9796 2.6772 5.9796 5.9796z"/>
      <path style="stroke:#000;stroke-width:1px;fill:none" d="m355.96 205.51 24.549 14.173v10.63l-24.549-14.173v-10.63z"/>
      <path style="fill:#337FB9" d="m356.07 205.64 24.434 14.044v10.63l-24.549-14.173 0.11453-10.501z"/>
      <path style="fill:#336E99" d="m359.03 217.91v-10.63l-3.0686-1.7717v10.63l3.0686 1.7716z"/>
      <path style="fill:#336E99" d="m380.51 230.31v-10.63l-3.0686-1.7717v10.63l3.0686 1.7716z"/>
      <path style="fill:#336E99" d="m371.3 225v-10.63l-3.0686-1.7717v10.63l3.0686 1.7716z"/>
      <path style="fill:#336E99" d="m368.23 223.23v-10.63l-3.0686-1.7717v10.63l3.0686 1.7716z"/>
      <path style="stroke:#4c4c4c;fill:url(#drive)" transform="matrix(.19724 .11387 0 .22775 305.94 144.8)" d="m322.2 163.35c0 3.3025-2.6772 5.9796-5.9796 5.9796-3.3025 0-5.9796-2.6772-5.9796-5.9796 0-3.3025 2.6772-5.9796 5.9796-5.9796 3.3025 0 5.9796 2.6772 5.9796 5.9796z"/>
      <path style="stroke:#4c4c4c;fill:url(#drive)" transform="matrix(.19724 .11387 0 .22775 295.05 138.42)" d="m322.2 163.35c0 3.3025-2.6772 5.9796-5.9796 5.9796-3.3025 0-5.9796-2.6772-5.9796-5.9796 0-3.3025 2.6772-5.9796 5.9796-5.9796 3.3025 0 5.9796 2.6772 5.9796 5.9796z"/>
      <path style="stroke:#4c4c4c;fill:url(#drive)" transform="matrix(.19724 .11387 0 .22775 316.64 150.92)" d="m322.2 163.35c0 3.3025-2.6772 5.9796-5.9796 5.9796-3.3025 0-5.9796-2.6772-5.9796-5.9796 0-3.3025 2.6772-5.9796 5.9796-5.9796 3.3025 0 5.9796 2.6772 5.9796 5.9796z"/>
      <path style="stroke:#000;stroke-width:1px;fill:none" d="m355.96 216.14 24.549 14.173v10.63l-24.549-14.173v-10.63z"/>
      <path style="fill:#337FB9" d="m356.07 216.27 24.434 14.044v10.63l-24.549-14.173 0.11453-10.501z"/>
      <path style="fill:#336E99" d="m359.03 228.54v-10.63l-3.0686-1.7717v10.63l3.0686 1.7716z"/>
      <path style="fill:#336E99" d="m380.51 240.94v-10.63l-3.0686-1.7717v10.63l3.0686 1.7716z"/>
      <path style="fill:#336E99" d="m371.3 235.63v-10.63l-3.0686-1.7717v10.63l3.0686 1.7716z"/>
      <path style="fill:#336E99" d="m368.23 233.86v-10.63l-3.0686-1.7717v10.63l3.0686 1.7716z"/>
      <path style="stroke:#4c4c4c;fill:url(#drive)" transform="matrix(.19724 .11387 0 .22775 305.94 155.43)" d="m322.2 163.35c0 3.3025-2.6772 5.9796-5.9796 5.9796-3.3025 0-5.9796-2.6772-5.9796-5.9796 0-3.3025 2.6772-5.9796 5.9796-5.9796 3.3025 0 5.9796 2.6772 5.9796 5.9796z"/>
      <path style="stroke:#4c4c4c;fill:url(#drive)" transform="matrix(.19724 .11387 0 .22775 295.05 149.05)" d="m322.2 163.35c0 3.3025-2.6772 5.9796-5.9796 5.9796-3.3025 0-5.9796-2.6772-5.9796-5.9796 0-3.3025 2.6772-5.9796 5.9796-5.9796 3.3025 0 5.9796 2.6772 5.9796 5.9796z"/>
      <path style="stroke:#4c4c4c;fill:url(#drive)" transform="matrix(.19724 .11387 0 .22775 316.64 161.55)" d="m322.2 163.35c0 3.3025-2.6772 5.9796-5.9796 5.9796-3.3025 0-5.9796-2.6772-5.9796-5.9796 0-3.3025 2.6772-5.9796 5.9796-5.9796 3.3025 0 5.9796 2.6772 5.9796 5.9796z"/>
      <path style="stroke:#000;stroke-width:1.8;fill:none" d="m355.96 162.99v31.89l24.549 14.173v-31.89l-24.549-14.173z"/>
      <path style="stroke:#000;stroke-width:1.8;fill:none" d="m355.96 194.88v31.89l24.549 14.173v-31.89l-24.549-14.173z"/>
      <path style="stroke-linejoin:round;stroke:#ababab;stroke-linecap:round;stroke-width:0.4;fill:none" d="m352.89 157.68 30.686 17.717v70.866"/>
      <path style="stroke-linejoin:round;stroke:#6c6c6c;stroke-linecap:round;stroke-width:0.4;fill:none" d="m352.89 157.68v70.866l30.686 17.717"/>
      <path style="stroke-linejoin:round;stroke:#757575;stroke-linecap:round;stroke-width:0.4;fill:none" d="m383.57 175.39 30.686-17.717"/>
      <path style="stroke:#000;stroke-width:1px;fill:none" d="m389.77 175.42-0.0565 28.321"/>
      <path style="stroke:#000;stroke-width:1px;fill:none" d="m392.78 173.62-0.0565 28.321"/>
      <path style="stroke:#000;stroke-width:1px;fill:none" d="m395.85 171.85-0.0565 28.321"/>
      <path style="stroke:#000;stroke-width:1px;fill:none" d="m398.92 170.08-0.0565 28.321"/>
      <path style="stroke:#000;stroke-width:1px;fill:none" d="m401.99 168.31-0.0565 28.321"/>
      <path style="stroke:#000;stroke-width:1px;fill:none" d="m405.05 166.54-0.0565 28.321"/>
      <path style="stroke:#000;stroke-width:1px;fill:none" d="m408.12 164.76-0.0565 28.321"/>
      <path style="stroke:#000;stroke-width:1px;fill:none" d="m389.827 210.878-0.0565 28.321"/>
      <path style="stroke:#000;stroke-width:1px;fill:none" d="m392.837 209.078-0.0565 28.321"/>
      <path style="stroke:#000;stroke-width:1px;fill:none" d="m395.907 207.308-0.0565 28.321"/>
      <path style="stroke:#000;stroke-width:1px;fill:none" d="m398.977 205.538-0.0565 28.321"/>
      <path style="stroke:#000;stroke-width:1px;fill:none" d="m402.047 203.768-0.0565 28.321"/>
      <path style="stroke:#000;stroke-width:1px;fill:none" d="m405.107 202-0.0565 28.321"/>
      <path style="stroke:#000;stroke-width:1px;fill:none" d="m408.177 200.218-0.0565 28.321"/>
    </g>

    <!-- ═══════════════════════════════════════════════════
         GCP  —  gray body, red/yellow/blue drawers   (tx + 148)
         ═══════════════════════════════════════════════════ -->
    <g transform="matrix(.92352 0 0 .92352 166.349 358.16)">
      <path style="stroke-linejoin:round;stroke:#000;stroke-linecap:round;stroke-width:2;fill:#000" d="m383.56 139.97-30.688 17.719v70.844l30.688 17.719 30.688-17.719v-70.844l-30.688-17.719z"/>
      <!-- left face: light gray -->
      <path style="fill:#EDEEF0" d="m352.89 157.68v70.866l30.686 17.717v-70.866l-30.686-17.717z"/>
      <!-- top face: light gray -->
      <path style="fill:#EDEEF0" d="m383.57 139.96-30.686 17.717 30.686 17.717 30.686-17.717-30.686-17.717z"/>
      <!-- right face: medium gray -->
      <path style="fill:#B8BABF" d="m383.57 175.39 30.686-17.717v70.866l-30.686 17.717v-70.866z"/>
      <!-- right panels: medium-dark gray -->
      <path style="stroke:#000;stroke-width:1px;fill:#8A8C91" d="m411.19 162.99-24.549 14.173v28.346l24.549-14.173v-28.346z"/>
      <path style="stroke:#000;stroke-width:1px;fill:#8A8C91" d="m411.19 198.43-24.549 14.173v28.346l24.549-14.173v-28.346z"/>
      <!-- shelf row 1: red (#EA4335) -->
      <path style="fill:#D13B2E" d="m356.07 163.12 24.434 14.044v10.63l-24.549-14.173 0.11453-10.501z"/>
      <path style="fill:#B82B20" d="m359.03 175.39v-10.63l-3.0686-1.7717v10.63l3.0686 1.7716z"/>
      <path style="fill:#B82B20" d="m380.51 187.8v-10.63l-3.0686-1.7717v10.63l3.0686 1.7716z"/>
      <path style="fill:#B82B20" d="m371.3 182.48v-10.63l-3.0686-1.7717v10.63l3.0686 1.7716z"/>
      <path style="fill:#B82B20" d="m368.23 180.71v-10.63l-3.0686-1.7717v10.63l3.0686 1.7716z"/>
      <path style="stroke:#4c4c4c;fill:url(#drive)" transform="matrix(.19724 .11387 0 .22775 305.94 102.28)" d="m322.2 163.35c0 3.3025-2.6772 5.9796-5.9796 5.9796-3.3025 0-5.9796-2.6772-5.9796-5.9796 0-3.3025 2.6772-5.9796 5.9796-5.9796 3.3025 0 5.9796 2.6772 5.9796 5.9796z"/>
      <path style="stroke:#4c4c4c;fill:url(#drive)" transform="matrix(.19724 .11387 0 .22775 295.05 95.904)" d="m322.2 163.35c0 3.3025-2.6772 5.9796-5.9796 5.9796-3.3025 0-5.9796-2.6772-5.9796-5.9796 0-3.3025 2.6772-5.9796 5.9796-5.9796 3.3025 0 5.9796 2.6772 5.9796 5.9796z"/>
      <path style="stroke:#4c4c4c;fill:url(#drive)" transform="matrix(.19724 .11387 0 .22775 316.64 108.4)" d="m322.2 163.35c0 3.3025-2.6772 5.9796-5.9796 5.9796-3.3025 0-5.9796-2.6772-5.9796-5.9796 0-3.3025 2.6772-5.9796 5.9796-5.9796 3.3025 0 5.9796 2.6772 5.9796 5.9796z"/>
      <!-- shelf row 2: red (#EA4335) -->
      <path style="stroke:#000;stroke-width:1px;fill:none" d="m355.96 162.99 24.549 14.173v10.63l-24.549-14.173v-10.63z"/>
      <path style="fill:#D13B2E" d="m356.07 173.75 24.434 14.044v10.63l-24.549-14.173 0.11453-10.501z"/>
      <path style="fill:#B82B20" d="m359.03 186.02v-10.63l-3.0686-1.7717v10.63l3.0686 1.7716z"/>
      <path style="fill:#B82B20" d="m380.51 198.43v-10.63l-3.0686-1.7717v10.63l3.0686 1.7716z"/>
      <path style="fill:#B82B20" d="m371.3 193.11v-10.63l-3.0686-1.7717v10.63l3.0686 1.7716z"/>
      <path style="fill:#B82B20" d="m368.23 191.34v-10.63l-3.0686-1.7717v10.63l3.0686 1.7716z"/>
      <path style="stroke:#4c4c4c;fill:url(#drive)" transform="matrix(.19724 .11387 0 .22775 305.94 112.91)" d="m322.2 163.35c0 3.3025-2.6772 5.9796-5.9796 5.9796-3.3025 0-5.9796-2.6772-5.9796-5.9796 0-3.3025 2.6772-5.9796 5.9796-5.9796 3.3025 0 5.9796 2.6772 5.9796 5.9796z"/>
      <path style="stroke:#4c4c4c;fill:url(#drive)" transform="matrix(.19724 .11387 0 .22775 295.05 106.53)" d="m322.2 163.35c0 3.3025-2.6772 5.9796-5.9796 5.9796-3.3025 0-5.9796-2.6772-5.9796-5.9796 0-3.3025 2.6772-5.9796 5.9796-5.9796 3.3025 0 5.9796 2.6772 5.9796 5.9796z"/>
      <path style="stroke:#4c4c4c;fill:url(#drive)" transform="matrix(.19724 .11387 0 .22775 316.64 119.03)" d="m322.2 163.35c0 3.3025-2.6772 5.9796-5.9796 5.9796-3.3025 0-5.9796-2.6772-5.9796-5.9796 0-3.3025 2.6772-5.9796 5.9796-5.9796 3.3025 0 5.9796 2.6772 5.9796 5.9796z"/>
      <!-- shelf row 3: yellow (#FBBC05) -->
      <path style="stroke:#000;stroke-width:1px;fill:none" d="m355.96 173.62 24.549 14.173v10.63l-24.549-14.173v-10.63z"/>
      <path style="fill:#E0A804" d="m356.07 184.38 24.434 14.044v10.63l-24.549-14.173 0.11453-10.501z"/>
      <path style="fill:#C59403" d="m359.03 196.65v-10.63l-3.0686-1.7717v10.63l3.0686 1.7716z"/>
      <path style="fill:#C59403" d="m380.51 209.06v-10.63l-3.0686-1.7717v10.63l3.0686 1.7716z"/>
      <path style="fill:#C59403" d="m371.3 203.74v-10.63l-3.0686-1.7717v10.63l3.0686 1.7716z"/>
      <path style="fill:#C59403" d="m368.23 201.97v-10.63l-3.0686-1.7717v10.63l3.0686 1.7716z"/>
      <path style="stroke:#4c4c4c;fill:url(#drive)" transform="matrix(.19724 .11387 0 .22775 305.94 123.54)" d="m322.2 163.35c0 3.3025-2.6772 5.9796-5.9796 5.9796-3.3025 0-5.9796-2.6772-5.9796-5.9796 0-3.3025 2.6772-5.9796 5.9796-5.9796 3.3025 0 5.9796 2.6772 5.9796 5.9796z"/>
      <path style="stroke:#4c4c4c;fill:url(#drive)" transform="matrix(.19724 .11387 0 .22775 295.05 117.16)" d="m322.2 163.35c0 3.3025-2.6772 5.9796-5.9796 5.9796-3.3025 0-5.9796-2.6772-5.9796-5.9796 0-3.3025 2.6772-5.9796 5.9796-5.9796 3.3025 0 5.9796 2.6772 5.9796 5.9796z"/>
      <path style="stroke:#4c4c4c;fill:url(#drive)" transform="matrix(.19724 .11387 0 .22775 316.64 129.66)" d="m322.2 163.35c0 3.3025-2.6772 5.9796-5.9796 5.9796-3.3025 0-5.9796-2.6772-5.9796-5.9796 0-3.3025 2.6772-5.9796 5.9796-5.9796 3.3025 0 5.9796 2.6772 5.9796 5.9796z"/>
      <!-- shelf row 4: yellow (#FBBC05) -->
      <path style="stroke:#000;stroke-width:1px;fill:none" d="m355.96 184.25 24.549 14.173v10.63l-24.549-14.173v-10.63z"/>
      <path style="stroke:#000;stroke-width:1px;fill:none" d="m355.96 194.88 24.549 14.173v10.63l-24.549-14.173v-10.63z"/>
      <path style="fill:#E0A804" d="m356.07 195.01 24.434 14.044v10.63l-24.549-14.173 0.11453-10.501z"/>
      <path style="fill:#C59403" d="m359.03 207.28v-10.63l-3.0686-1.7717v10.63l3.0686 1.7716z"/>
      <path style="fill:#C59403" d="m380.51 219.69v-10.63l-3.0686-1.7717v10.63l3.0686 1.7716z"/>
      <path style="fill:#C59403" d="m371.3 214.37v-10.63l-3.0686-1.7717v10.63l3.0686 1.7716z"/>
      <path style="fill:#C59403" d="m368.23 212.6v-10.63l-3.0686-1.7717v10.63l3.0686 1.7716z"/>
      <path style="stroke:#4c4c4c;fill:url(#drive)" transform="matrix(.19724 .11387 0 .22775 305.94 134.17)" d="m322.2 163.35c0 3.3025-2.6772 5.9796-5.9796 5.9796-3.3025 0-5.9796-2.6772-5.9796-5.9796 0-3.3025 2.6772-5.9796 5.9796-5.9796 3.3025 0 5.9796 2.6772 5.9796 5.9796z"/>
      <path style="stroke:#4c4c4c;fill:url(#drive)" transform="matrix(.19724 .11387 0 .22775 295.05 127.79)" d="m322.2 163.35c0 3.3025-2.6772 5.9796-5.9796 5.9796-3.3025 0-5.9796-2.6772-5.9796-5.9796 0-3.3025 2.6772-5.9796 5.9796-5.9796 3.3025 0 5.9796 2.6772 5.9796 5.9796z"/>
      <path style="stroke:#4c4c4c;fill:url(#drive)" transform="matrix(.19724 .11387 0 .22775 316.64 140.29)" d="m322.2 163.35c0 3.3025-2.6772 5.9796-5.9796 5.9796-3.3025 0-5.9796-2.6772-5.9796-5.9796 0-3.3025 2.6772-5.9796 5.9796-5.9796 3.3025 0 5.9796 2.6772 5.9796 5.9796z"/>
      <!-- shelf row 5: blue (#4285F4) -->
      <path style="stroke:#000;stroke-width:1px;fill:none" d="m355.96 205.51 24.549 14.173v10.63l-24.549-14.173v-10.63z"/>
      <path style="fill:#3B78DC" d="m356.07 205.64 24.434 14.044v10.63l-24.549-14.173 0.11453-10.501z"/>
      <path style="fill:#2F62B5" d="m359.03 217.91v-10.63l-3.0686-1.7717v10.63l3.0686 1.7716z"/>
      <path style="fill:#2F62B5" d="m380.51 230.31v-10.63l-3.0686-1.7717v10.63l3.0686 1.7716z"/>
      <path style="fill:#2F62B5" d="m371.3 225v-10.63l-3.0686-1.7717v10.63l3.0686 1.7716z"/>
      <path style="fill:#2F62B5" d="m368.23 223.23v-10.63l-3.0686-1.7717v10.63l3.0686 1.7716z"/>
      <path style="stroke:#4c4c4c;fill:url(#drive)" transform="matrix(.19724 .11387 0 .22775 305.94 144.8)" d="m322.2 163.35c0 3.3025-2.6772 5.9796-5.9796 5.9796-3.3025 0-5.9796-2.6772-5.9796-5.9796 0-3.3025 2.6772-5.9796 5.9796-5.9796 3.3025 0 5.9796 2.6772 5.9796 5.9796z"/>
      <path style="stroke:#4c4c4c;fill:url(#drive)" transform="matrix(.19724 .11387 0 .22775 295.05 138.42)" d="m322.2 163.35c0 3.3025-2.6772 5.9796-5.9796 5.9796-3.3025 0-5.9796-2.6772-5.9796-5.9796 0-3.3025 2.6772-5.9796 5.9796-5.9796 3.3025 0 5.9796 2.6772 5.9796 5.9796z"/>
      <path style="stroke:#4c4c4c;fill:url(#drive)" transform="matrix(.19724 .11387 0 .22775 316.64 150.92)" d="m322.2 163.35c0 3.3025-2.6772 5.9796-5.9796 5.9796-3.3025 0-5.9796-2.6772-5.9796-5.9796 0-3.3025 2.6772-5.9796 5.9796-5.9796 3.3025 0 5.9796 2.6772 5.9796 5.9796z"/>
      <!-- shelf row 6: blue (#4285F4) -->
      <path style="stroke:#000;stroke-width:1px;fill:none" d="m355.96 216.14 24.549 14.173v10.63l-24.549-14.173v-10.63z"/>
      <path style="fill:#3B78DC" d="m356.07 216.27 24.434 14.044v10.63l-24.549-14.173 0.11453-10.501z"/>
      <path style="fill:#2F62B5" d="m359.03 228.54v-10.63l-3.0686-1.7717v10.63l3.0686 1.7716z"/>
      <path style="fill:#2F62B5" d="m380.51 240.94v-10.63l-3.0686-1.7717v10.63l3.0686 1.7716z"/>
      <path style="fill:#2F62B5" d="m371.3 235.63v-10.63l-3.0686-1.7717v10.63l3.0686 1.7716z"/>
      <path style="fill:#2F62B5" d="m368.23 233.86v-10.63l-3.0686-1.7717v10.63l3.0686 1.7716z"/>
      <path style="stroke:#4c4c4c;fill:url(#drive)" transform="matrix(.19724 .11387 0 .22775 305.94 155.43)" d="m322.2 163.35c0 3.3025-2.6772 5.9796-5.9796 5.9796-3.3025 0-5.9796-2.6772-5.9796-5.9796 0-3.3025 2.6772-5.9796 5.9796-5.9796 3.3025 0 5.9796 2.6772 5.9796 5.9796z"/>
      <path style="stroke:#4c4c4c;fill:url(#drive)" transform="matrix(.19724 .11387 0 .22775 295.05 149.05)" d="m322.2 163.35c0 3.3025-2.6772 5.9796-5.9796 5.9796-3.3025 0-5.9796-2.6772-5.9796-5.9796 0-3.3025 2.6772-5.9796 5.9796-5.9796 3.3025 0 5.9796 2.6772 5.9796 5.9796z"/>
      <path style="stroke:#4c4c4c;fill:url(#drive)" transform="matrix(.19724 .11387 0 .22775 316.64 161.55)" d="m322.2 163.35c0 3.3025-2.6772 5.9796-5.9796 5.9796-3.3025 0-5.9796-2.6772-5.9796-5.9796 0-3.3025 2.6772-5.9796 5.9796-5.9796 3.3025 0 5.9796 2.6772 5.9796 5.9796z"/>
      <path style="stroke:#000;stroke-width:1.8;fill:none" d="m355.96 162.99v31.89l24.549 14.173v-31.89l-24.549-14.173z"/>
      <path style="stroke:#000;stroke-width:1.8;fill:none" d="m355.96 194.88v31.89l24.549 14.173v-31.89l-24.549-14.173z"/>
      <path style="stroke-linejoin:round;stroke:#ababab;stroke-linecap:round;stroke-width:0.4;fill:none" d="m352.89 157.68 30.686 17.717v70.866"/>
      <path style="stroke-linejoin:round;stroke:#6c6c6c;stroke-linecap:round;stroke-width:0.4;fill:none" d="m352.89 157.68v70.866l30.686 17.717"/>
      <path style="stroke-linejoin:round;stroke:#757575;stroke-linecap:round;stroke-width:0.4;fill:none" d="m383.57 175.39 30.686-17.717"/>
      <path style="stroke:#000;stroke-width:1px;fill:none" d="m389.77 175.42-0.0565 28.321"/>
      <path style="stroke:#000;stroke-width:1px;fill:none" d="m392.78 173.62-0.0565 28.321"/>
      <path style="stroke:#000;stroke-width:1px;fill:none" d="m395.85 171.85-0.0565 28.321"/>
      <path style="stroke:#000;stroke-width:1px;fill:none" d="m398.92 170.08-0.0565 28.321"/>
      <path style="stroke:#000;stroke-width:1px;fill:none" d="m401.99 168.31-0.0565 28.321"/>
      <path style="stroke:#000;stroke-width:1px;fill:none" d="m405.05 166.54-0.0565 28.321"/>
      <path style="stroke:#000;stroke-width:1px;fill:none" d="m408.12 164.76-0.0565 28.321"/>
      <path style="stroke:#000;stroke-width:1px;fill:none" d="m389.827 210.878-0.0565 28.321"/>
      <path style="stroke:#000;stroke-width:1px;fill:none" d="m392.837 209.078-0.0565 28.321"/>
      <path style="stroke:#000;stroke-width:1px;fill:none" d="m395.907 207.308-0.0565 28.321"/>
      <path style="stroke:#000;stroke-width:1px;fill:none" d="m398.977 205.538-0.0565 28.321"/>
      <path style="stroke:#000;stroke-width:1px;fill:none" d="m402.047 203.768-0.0565 28.321"/>
      <path style="stroke:#000;stroke-width:1px;fill:none" d="m405.107 202-0.0565 28.321"/>
      <path style="stroke:#000;stroke-width:1px;fill:none" d="m408.177 200.218-0.0565 28.321"/>
    </g>

  </g>
</svg>
