<?xml version="1.0" encoding="utf-8"?>
<!-- Generator: Adobe Illustrator 20.1.0, SVG Export Plug-In . SVG Version: 6.00 Build 0)  -->
<svg version="1.1" id="Layer_1" xmlns="http://www.w3.org/2000/svg" xmlns:xlink="http://www.w3.org/1999/xlink" x="0px" y="0px"
	 viewBox="0 0 110 110" style="enable-background:new 0 0 110 110;" xml:space="preserve">
<style type="text/css">
	.text-search-group {fill:url(#SVGID_1_);}
</style>
<g class="text-search-group">
	<linearGradient id="SVGID_1_" gradientUnits="userSpaceOnUse" x1="49.8156" y1="95.5448" x2="49.8156" y2="13.9401">
		<stop  offset="0" style="stop-color:#7B2414"/>
		<stop  offset="0.997" style="stop-color:#C92414"/>
	</linearGradient>
	<path class="st0" d="M66.8,44.1H32.8c-0.8,0-1.4,0.6-1.4,1.4c0,0.8,0.6,1.4,1.4,1.4h34.1c0.8,0,1.4-0.6,1.4-1.4
		C68.2,44.7,67.6,44.1,66.8,44.1L66.8,44.1z M66.8,44.1"/>
	<path class="st1" d="M32.8,35.9h13.6c0.8,0,1.4-0.6,1.4-1.4c0-0.8-0.6-1.4-1.4-1.4H32.8c-0.8,0-1.4,0.6-1.4,1.4
		C31.4,35.3,32,35.9,32.8,35.9L32.8,35.9z M32.8,35.9"/>
	<path class="st2" d="M68.2,56.4c0-0.8-0.6-1.4-1.4-1.4H32.8c-0.8,0-1.4,0.6-1.4,1.4c0,0.8,0.6,1.4,1.4,1.4h34.1
		C67.6,57.7,68.2,57.1,68.2,56.4L68.2,56.4z M68.2,56.4"/>
	<path class="st3" d="M57.3,67.3c0-0.8-0.6-1.4-1.4-1.4H32.8c-0.8,0-1.4,0.6-1.4,1.4c0,0.8,0.6,1.4,1.4,1.4h23.2
		C56.7,68.6,57.3,68,57.3,67.3L57.3,67.3z M57.3,67.3"/>
	<path class="st4" d="M32.8,76.8c-0.8,0-1.4,0.6-1.4,1.4c0,0.8,0.6,1.4,1.4,1.4h19.1c0.8,0,1.4-0.6,1.4-1.4c0-0.8-0.6-1.4-1.4-1.4
		H32.8z M32.8,76.8"/>
	<path class="st5" d="M20.5,16.9H60v19.1h19.1v20.4h2.7V34L62,14.1H17.8v81.7h50.4v-2.7H20.5V16.9z M62.8,18.8l14.4,14.4H62.8V18.8z
		 M62.8,18.8"/>
	<path class="st6" d="M97.8,93.5L89.7,85c2.4-2.6,3.8-6.1,3.8-9.9c0-8.1-6.6-14.7-14.7-14.7c-8.1,0-14.7,6.6-14.7,14.7
		c0,8.1,6.6,14.7,14.7,14.7c3.3,0,6.4-1.1,8.9-3l8.2,8.5c0.3,0.3,0.6,0.4,1,0.4c0.3,0,0.7-0.1,0.9-0.4
		C98.3,94.9,98.3,94.1,97.8,93.5L97.8,93.5z M66.8,75.2c0-6.6,5.4-12,12-12c6.6,0,12,5.4,12,12c0,6.6-5.4,12-12,12
		C72.2,87.1,66.8,81.8,66.8,75.2L66.8,75.2z M66.8,75.2"/>
</g>
</svg>
