<?xml version="1.0" encoding="utf-8"?>
<svg version="1.1" id="Uber icon" xmlns="http://www.w3.org/2000/svg" xmlns:xlink="http://www.w3.org/1999/xlink" x="0px" y="0px"
	 viewBox="0 0 48 48" style="enable-background:new 0 0 48 48;" xml:space="preserve">
<circle fill="rgb(0,0,0)" cx="24" cy="24" r="24"/>
<path fill="rgb(255,255,255)" d="M12.4,28.2c1.5,0,2.8-1.2,2.8-3v-7h1.7v11.2h-1.7v-1.1c-0.8,0.8-1.8,1.2-3,1.2C9.8,29.7,8,28,8,25.3v-7h1.7v7
	C9.6,27,10.9,28.2,12.4,28.2 M18.1,18.3h1.6v4.1c0.7-0.8,1.8-1.2,2.9-1.2c2.4,0,4.3,1.9,4.3,4.3s-1.9,4.3-4.3,4.3
	c-1.1,0-2.2-0.4-2.9-1.2v1h-1.6V18.3L18.1,18.3z M22.5,28.3c1.5,0,2.8-1.3,2.8-2.9s-1.3-2.9-2.8-2.9c-1.5,0-2.8,1.3-2.8,2.9
	S21,28.3,22.5,28.3 M31.8,21.2c2.4,0,4.1,1.8,4.1,4.3V26h-6.7c0.2,1.3,1.3,2.3,2.7,2.3c0.9,0,1.8-0.4,2.4-1.2l1.2,0.9
	c-0.8,1.1-2,1.8-3.5,1.8c-2.4,0-4.4-1.8-4.4-4.3C27.6,23.1,29.4,21.2,31.8,21.2 M29.3,24.7h5c-0.3-1.3-1.3-2.1-2.5-2.1
	C30.6,22.6,29.6,23.4,29.3,24.7 M40.3,22.8c-1.1,0-1.8,0.8-1.8,2.1v4.6h-1.6v-8.2h1.6v1c0.4-0.7,1.1-1.1,2-1.1H41v1.5H40.3
	L40.3,22.8z"/>
</svg>
