<?xml version="1.0" encoding="utf-8"?>
<svg version="1.0" baseProfile="Basic"
 xmlns="http://www.w3.org/2000/svg"
 width="750px" height="470px" viewBox="0 0 750 470">
	<g id="flag">
	  <rect x="0" y="0" width="750" height="470" />
		<g id="symbol" fill="white">
			<g id="bones">
			  <path d="M 255 221 C 248 221 239 226 235 232 C 233 236 230 239 227 239 C 218 241 208 256 210 264 C 212 274 220 278 238 280 C 266 284 314 303 362 329 C 410 356 428 365 432 365 C 435 365 446 373 456 382 C 461 387 469 393 473 396 C 488 405 498 403 508 387 C 510 384 512 382 514 383 C 518 384 527 380 530 375 C 532 370 532 361 528 358 C 522 352 517 351 490 349 C 461 348 447 344 429 334 C 424 331 415 327 410 324 C 405 321 391 313 380 307 C 356 293 322 274 307 267 C 293 259 281 249 273 237 C 266 226 261 221 255 221 z M 247.5 257.875 C 247.75 257.75 247.5 258.5 247 260 C 246 264 247 264 257 267 C 267 270 280 276 280 278 C 280 279 278 278 273 276 C 270 275 262 272 256 271 C 249 269 244 267 243 266 C 242 265 243 263 245 261 C 246.5 259 247.25 258 247.5 257.875 z M 448 360 C 449 360 458 366 470 376 C 480 385 482 385 487 384 C 494 382 497 384 491 387 C 485 390 483 390 468 378 C 461 371 453 365 450 364 C 447 363 445 360 448 360 z M 506.34375 363 C 506.81641 362.99414 507.375 363 508 363 C 510 363 512 364 512 365 C 512 368 509 368 506 366 C 503.375 363.375 503.03516 363.04102 506.34375 363 z " />
			  <path d="M 339 320 L 323 328 C 294 341 282 343 239 341 C 228 340 224 341 218 344 C 211 348 209 352 210 360 C 212 366 215 369 224 372 C 229 374 231 376 232 380 C 233 383 236 388 239 390 C 250 399 265 394 290 375 C 297 370 308 364 314 362 C 323 358 341 350 364 340 L 369 338 L 361 333 C 356 330 349 326 346 324 L 339 320 z M 236.34375 351.34375 C 237.125 351.3125 237.75 351.5 238 352 C 239 352 238 354 237 355 C 234 357 232 357 231 355 C 230.25 353.5 234 351.4375 236.34375 351.34375 z M 246.15625 364.40625 C 246.59717 364.21655 247.8125 366.0625 250 370 C 254 378 255 379 263 376 C 267 375 267 375 264 379 C 262 381 259 382 255 382 C 250 382 249 382 248 375 C 246.3125 368.25 245.58936 364.65015 246.15625 364.40625 z " />
			  <path d="M 497.65625 226.9375 C 495.62817 226.92285 493.6875 227.25 492 228 C 490 229 486 234 482 239 C 471 255 459 264 434 276 C 399 292 380 301 381 302 C 381 303 388 307 395 311 L 409 319 L 427 312 C 454 301 489 291 509 289 C 531 286 532 286 537 281 C 541 276 542 267 537 260 C 536 257 531 252 526 249 C 520 246 517 242 517 240 C 517 233.5 506.44458 227.00098 497.65625 226.9375 z M 505 264 L 506 269 C 508 274 504 278 498 278 C 496 278 489 280 482 282 C 476 283 471 284 471 284 C 471 282 475 280 490 277 C 502 274 503 274 504 269 L 505 264 z " />
			</g>
			<g id="teeth">
				<path d="M 373,224 C 372,224 371,225 371,228 C 371,228 370,234 372,233 C 374,233 378,235 377,229 C 377,226 375,224 373,224 z " />
			  <path d="M 371,253 C 370,248 370,245 374,245 C 378,245 379,247 377,252 C 375,257 373,257 371,253 z " />
				<path d="M 365,223 C 364,223 362,226 362,229 C 362,230 362,233 362,234 C 363,234 365,234 366,234 C 368,234 367,228 367,226 C 367,224 366,223 365,223 C 365,223 365,223 365,223 z " />
			  <path d="M 363,253 C 361,251 362,245 364,245 C 366,245 367,247 367,250 C 367,254 365,255 363,253 z " />
			  <path d="M 385,253 C 383,250 384,245 388,245 C 390,245 391,246 391,249 C 390,253 387,255 385,253 z " />
			  <path d="M 354,251 C 352,249 353,245 356,245 C 357,245 358,247 358,249 C 358,252 356,253 354,251 z " />
			  <path d="M 380,233 C 378,231 381,223 383,223 C 386,224 387,233 383,234 C 382,234 380,234 380,233 z " />
			  <path d="M 352,231 C 351,227 352,223 356,223 C 357,223 358,225 358,228 C 358,234 354,236 352,231 z " />
				<path d="M 389,228 C 389,224 390,223 392,223 C 394,224 395,225 395,228 C 395,231 394,233 392,233 C 390,233 389,232 389,228 z " />
			</g>
			<g id="skull">
				<path d="M 358,277 C 349,274 348,273 337,260 C 329,248 328,247 326,223 C 325,209 326,208 335,216 C 340,221 341,223 343,234 C 345,252 352,258 374,258 C 391,258 398,255 402,246 C 403,243 405,238 405,236 C 405,227 409,219 414,216 C 417,214 420,213 421,213 C 423,213 421,245 418,250 C 415,257 401,273 397,275 C 391,277 366,279 358,277 z " />
				<path d="M 373 67 C 353 68 351 69 340 74 C 328 80 314 93 308 106 C 304 114 304 117 304 134 C 304 151 304 154 308 161 C 310 166 313 169 313 168 C 314 168 314 159 314 149 C 314 131 314 130 320 117 C 327 104 334 95 332 103 C 330 111 326 119 323 127 C 319 135 318 139 318 154 C 318 170 318 173 315 174 C 309 176 307 178 307 181 C 306 188 311 193 325 199 C 336 203 340 206 343 210 C 346 215 349 218 357 220 C 358 221 368 221 379 221 L 399 220 L 407 212 C 412 206 417 202 423 200 C 442 193 449 179 436 176 L 429 174 L 429 162 C 429 150 430 145 433 145 C 434 145 434 150 434 156 C 434 169 436 170 442 162 C 447 155 448 124 444 110 C 439 92 423 76 403 70 C 396 67 390 67 373 67 z M 347.40625 138.375 C 352.0556 138.09839 356.875 139.875 361 144 C 369 152 364 168 351 175 C 336 183 328 176 329 160 C 330.3125 146.875 338.53021 138.90308 347.40625 138.375 z M 401.5625 138.375 C 410.64771 138.18164 418.625 146.25 420 160 C 421 168 421 169 417 173 C 408 182 396 178 389 165 C 383 156 383 150 389 144 C 393.0625 140.25 397.43286 138.46289 401.5625 138.375 z M 375 168 C 377 168 382 188 382 195 C 382 199 382 199 378 196 C 374 194 373 194 369 196 C 364 200 363 199 364 196 C 365 194 365 190 366 187 C 368 179 373 168 375 168 z " />
			</g>
		</g>
	</g>
</svg>
